<svg xmlns="http://www.w3.org/2000/svg" viewBox="0 0 32 24" fill="none" stroke="#FF7A00" stroke-width="2.5" stroke-linecap="round" stroke-linejoin="round">
  <!-- Speed Lines -->
  <g opacity="0.8" stroke-width="3">
    <path d="M1 12h8" />
    <path d="M4 6h5" />
    <path d="M4 18h5" />
  </g>
  <!-- Main Hat -->
  <g transform="translate(8, 0)">
    <path d="M17 21a1 1 0 0 0 1-1v-5.35c0-.457.316-.844.727-1.041a4 4 0 0 0-2.134-7.589c-.26-2.192-2.194-3.83-4.453-3.83-2.316 0-4.288 1.718-4.5 3.966a4 4 0 0 0-1.895 7.424c.394.19.702.56.702 1.002V20a1 1 0 0 0 1 1h9.5Z" />
    <path d="M6 17h12" />
  </g>
</svg>
